# xmcd
#
# Track frame offsets:
#  150
#  12327
#  33075
#  46637
#  61965
#  87955
#  100827
#  112132
#  131007
#  150662
#  174415
#  186930
#  200945
#  227592
#
# Disc length: 3095 seconds
#
# Revision: 1
# Processed by: cddbd v1.5.1PL2 Copyright (c) Steve Scherf et al.
# Submitted via: Collectorz.com_Music_Collector 6.10
#
DISCID=b40c150e
DTITLE=Homesick James - Got To Move
DYEAR=1999
DGENRE=Blues
TTITLE0=H.James  Williamson - Can't Afford To Do It
TTITLE1=B. Geddings - Tin Pan Alley
TTITLE2=W. Henderson - Mr. Pawnshop Man ( Three Ball Blues )
TTITLE3=Elmore James - Baby Please Set A Date
TTITLE4=W. Henderson - Welfare Girl
TTITLE5=Elmore James - Joe Josea - Hawaiian Boogie
TTITLE6=W. Henderson - Dust My Broom
TTITLE7=Arthur "Big Boy" Crudup - That's All Right
TTITLE8=W. Henderson - Highway 51
TTITLE9=W. Henderson - Tennessee Woman
TTITLE10=Elmore James - Got To Move
TTITLE11=W. Henderson - Bein' With The One You Love ( Lost Lover Blues)
TTITLE12=W. Henderson - Homesick's Woman
TTITLE13=Homesick Talking
EXTD=
EXTT0=
EXTT1=
EXTT2=
EXTT3=
EXTT4=
EXTT5=
EXTT6=
EXTT7=
EXTT8=
EXTT9=
EXTT10=
EXTT11=
EXTT12=
EXTT13=
PLAYORDER=
